<svg xmlns="http://www.w3.org/2000/svg" viewBox="0 0 360 360"><defs><style>.cls-1{fill:#72699e;}.cls-2{fill:#90d5de;}.cls-3{fill:#fff3e0;}.cls-4{fill:#eadcca;}.cls-5{fill:#91b8dd;}.cls-6{fill:#fff3e1;}.cls-7{fill:#ef60a3;}.cls-8{fill:#7d4f60;}.cls-9{fill:#9dc0c7;}.cls-10{fill:#32271f;}.cls-11{fill:#66424e;}.cls-12{fill:#c5e1e6;}.cls-13{fill:#93b6bd;}.cls-14{fill:#addbe3;}</style></defs><g id="back"><circle id="black" cx="180" cy="180" r="180"/></g><g id="dragon"><path class="cls-1" d="M119.18,310.34c-1.4,1.3-17.09-8.54-15.22-14.79,1.44-4.86,13.22-6.6,15.07-3.75,1.27,1.94-2.82,4.86-2.44,10.78C116.9,307.34,119.82,309.74,119.18,310.34Z"/><path class="cls-1" d="M84.64,306c-2.69,1.11-10.72-8.1-13.57-19.39-.61-2.4-3.64-14.42,1.11-17.46,5.36-3.42,19.25,5.48,19.23,13,0,2.85-2,3.28-4.08,8.27C83.75,299.09,86.7,305.15,84.64,306Z"/><path class="cls-1" d="M255.48,42.55c-1.39-.47-3,2.88-8.87,10.34-8,10.22-10.81,11.38-10.34,14.4.92,5.93,13.11,10.92,17.73,7.39,1.95-1.5,1.44-3.67,1.85-16.25C256.22,46.68,256.85,43,255.48,42.55Z"/><path class="cls-1" d="M250.13,138.61A14.81,14.81,0,0,0,245.3,131a20,20,0,0,0-12.12-5,23.15,23.15,0,0,0-8.83,1,36.19,36.19,0,0,0-4.58,2c-4.91,2.37-7.72,3.76-7.67,5.5a2.08,2.08,0,0,0,1,1.7c2.62,1.53,8.48-4.93,9.18-4.25.38.37-1,2.52-2.21,4.07-2.75,3.5-4.86,4.16-4.71,5.41.18,1.59,3.75,2.81,6.62,2.9,7.36.24,12.78-6.9,14.12-8.77,8.11,2.76,10.71,6.21,11.54,8.92.71,2.3.26,4.45.7,4.51C249,149.06,251.38,143.91,250.13,138.61Z"/><path class="cls-2" d="M244.21,61.66c-6.76.05-23.23,7.13-25.45,10.7-.14.21-1.49,2.24-3.5,4.71a16.5,16.5,0,0,1-3.06,3.08c-1.82,1.42-3.91,2.43-8.09,4.45a3.19,3.19,0,0,0-.37.19c-1.57.89-1.19,8.89,1.41,13.44,3.6,6.29,13.18,8.94,23.82,7.76a29.48,29.48,0,0,1,10.41,7.87c11.88,14.37,9.61,42.23-1.43,54.68-26.45,29.81-100.54-31.92-151.09,2.27C68.84,183,56.65,206,56.11,229c-.08,3.47-.28,31.53,21.61,52.36C99.39,302,135.54,308.66,159,293.26c22.57-14.82,24.79-44.09,24.26-44.33-.73-.32-4.65,19.67-21.61,30.75-14.16,9.24-36.24,11.52-54,.83-4.2-2.52-22.24-14.22-23.1-33.91C83.89,231.78,93,215.85,106,209c32.39-17,62.74,28.65,121.33,22.44,9.66-1,41.54-4.41,59-27.43C322.45,156.44,269.18,61.48,244.21,61.66Z"/><path class="cls-3" d="M242.18,192.88c9.33-8,16.46-22.1,17.71-36.34,1.78-20.31-8.8-36.22-11.83-40.46A63.3,63.3,0,0,0,237,104.23a13.19,13.19,0,0,0,6-2.55c1.46-1.13,3.09-2.39,3.13-3.86.09-2.93-6.11-6.84-12.46-7.26-9.9-.64-13.69,7.57-21.79,5.54-5.39-1.34-8-5.43-9-4.6-1.16,1,1.71,8.2,7.34,12.18,7.29,5.16,16.4,2.95,18.74,2.31a29.48,29.48,0,0,1,10.41,7.87c11.83,14.31,9.85,42.23-1.43,54.68C211.22,198,136.47,135.85,86.76,170.59c-11.52,8-26.51,24.66-30.74,46.3A64.79,64.79,0,0,0,58.23,252a62.12,62.12,0,0,0,8.54,15.78,61,61,0,0,1-4.1-22.06c.12-24.35,15.23-45.35,27.33-53.93C134,160.58,205,224.77,242.18,192.88Z"/><path class="cls-1" d="M254.74,71.75A11.31,11.31,0,0,0,267.3,87.26c6-3.61,13.82-8.35,22.9-14,9.48-5.94,11.34-7.26,11.08-8.13C300.76,63.41,292.1,63.45,254.74,71.75Z"/><path class="cls-1" d="M234,78.28c2.68-.65,5.56.45,5.54,1.11s-2.33.28-5.54,1.94c-2.59,1.34-3.63,2.85-4.15,2.49s-.06-2.32,1-3.63A5.7,5.7,0,0,1,234,78.28Z"/><path class="cls-3" d="M193.79,275.52q45.39.12,47.65-9.69,1.47-6.4-15.42-17c19-3.58,38.94-11,47.1-27.45,8.23-16.59,1.84-37.1,4.33-37.53,2-.34,7.61,12,9.18,26.67,1.84,17.14,5.76,52.73-19.33,70.66C247.66,295.19,217.39,293.32,193.79,275.52Z"/><path class="cls-4" d="M237,104.23,229,106A31,31,0,0,1,236,110.7a32.39,32.39,0,0,1,8.27,11.65,39.71,39.71,0,0,1,3,17.75c-.11,5.46-.32,15.49-5.74,23.28-7.26,10.43-22.49,14.79-38.37,12.22a29.26,29.26,0,0,0,7.51,2.38c13.84,2.35,22.14-7,30.42-2.36a11.36,11.36,0,0,1,5.29,5.88,11,11,0,0,1,0,7.17,55.36,55.36,0,0,0,12-21.3c4.92-16.7.25-30.62-1.41-35.37A61.7,61.7,0,0,0,237,104.23Z"/><path class="cls-5" d="M100.59,208.87C95.21,213.33,91,222,91.4,222.31s3.94-7.4,12.41-12c10.77-5.89,21.94-4.2,26.08-3.51,2.6.43,4.64,1,20.84,7.38,7,2.78,12.86,5.15,17.1,6.88C156.58,214.87,117.7,194.67,100.59,208.87Z"/><path class="cls-5" d="M246.49,61.89a16.9,16.9,0,0,1,9.16,4.61,33.82,33.82,0,0,0-17.12-.45c-1.26.31-15.24,3.69-16.38,10.77-.22,1.36-.08,3.57-1.25,4.08-1,.43-1.94-.68-3.94-1.13a8.5,8.5,0,0,0-4.76.38l6.56-7.79a37.49,37.49,0,0,1,3.81-3.08,41.31,41.31,0,0,1,16.81-6.88A16.48,16.48,0,0,1,246.49,61.89Z"/><path class="cls-4" d="M83.1,173.35s-.2.14-.28.2c-10.59,8.69-10,15-10,15a8.62,8.62,0,0,0,3.07,6.13c3,2.22,7.8,1.86,12-1.09a67.81,67.81,0,0,0-12,12.88c-3.16,4.42-15.4,22.1-12.42,45.51A60,60,0,0,0,70,272.55,66.93,66.93,0,0,1,55,238,68.84,68.84,0,0,1,56,216.89a73.87,73.87,0,0,1,16.32-33.06C78.39,176.58,83.08,173.32,83.1,173.35Z"/><path class="cls-4" d="M193.79,275.52q45.39.12,47.65-9.69,1.47-6.4-15.42-17,31,15.46,29.18,22.55Q252.82,280.66,193.79,275.52Z"/><path class="cls-4" d="M277.24,205.71a26.47,26.47,0,0,1-.49,15.37c-4.82,13.76-19.89,17.45-21.1,17.73a39.76,39.76,0,0,0,12.69-10.23A40.8,40.8,0,0,0,277.24,205.71Z"/><path class="cls-1" d="M278.92,154.36c-1.84-8.09-53-6-54.94,3.36a7.84,7.84,0,0,0,1.48,5.54,9,9,0,0,0,6.09,3.33,5.37,5.37,0,0,0,2.66-1.88c1-1.44.41-2.38,1.23-3.78,1.49-2.55,5.74-3.1,5.81-2.93s-.13.1-.23.18c-1.15.95-6.26,5.31-5.31,8.41.42,1.38,2.3,2.21,3.83,2.4,6.17.76,7.57-9.21,15.83-11.86,8.81-2.84,16.53,5.43,21.61,1.1C277.14,158.1,279.34,156.18,278.92,154.36Z"/></g><g id="flame"><path class="cls-6" d="M157.12,102.75a26.22,26.22,0,0,0-8-15.34c-3-3.07-12.71-9.24-16-10.85s-17.22-7.45-20.64-12.08a8.18,8.18,0,0,1-.15-9.76c-5.06,3.66-7.23,11.51-7.23,11.51l6.68,12.64,30.57,27.46Z"/><path class="cls-7" d="M95.58,80.11c.55-6.45,6.25-23.11,16.74-25.39-6.38,8.06-4.21,11.47-1.8,15s24.33,16.58,27.84,22.67S143,103.79,142.58,106s-29.85,7.81-29.85,7.81Z"/><path class="cls-6" d="M116.16,111.06c.8-6.56-.83-12-4-17.77s-8.3-11-13.2-13.54a40.32,40.32,0,0,0-11.58-4c2.47,3.18,7.1,17.78,7.53,24.6s.37,14.13,3.74,14.33,14.77-2.54,16.07-2.58A1.48,1.48,0,0,0,116.16,111.06Z"/><path class="cls-7" d="M72.21,121c-3.92-9.54.67-15.43,5.08-20.09S89.88,90,89.72,83.26c-.1-4.39-1.48-5.26-2.41-7.41,4.13,1.29,11.25,8,13,12.41A40.35,40.35,0,0,1,103,105.62c-.38,5.24-.35,6.34-2.12,9S72.21,121,72.21,121Z"/></g><g id="torch"><g id="left"><polyline class="cls-8" points="134.72 181.26 155.07 277.91 145 283.47 119.73 181.86"/><path class="cls-9" d="M141.18,290.46c-1.12-5,4.49-10.5,12.52-12.3,1.17,5.2,3.13,13.89,4.07,18.09C149.73,298.05,142.3,295.44,141.18,290.46Z"/><polygon class="cls-9" points="152.36 265.05 135.86 268.74 140.36 271.85 153.6 268.89 152.36 265.05"/><polygon class="cls-9" points="129.75 165.58 133.72 181.47 117.3 185.14 110.31 168.35 129.75 165.58"/><polygon class="cls-10" points="128.87 161.55 129.75 165.58 107.59 170.53 102.18 166.54 128.87 161.55"/><polyline class="cls-11" points="127.5 155.81 128.87 161.55 100.57 167.88 100.08 165.7 102.2 165.25 101.52 161.91 103.34 161.5"/><polygon class="cls-9" points="128.42 146.66 130.53 155.61 103.34 161.68 97.78 150.85 128.42 146.66"/><polygon class="cls-12" points="126.27 140.74 127.5 146.87 93.94 154.37 90.39 148.76 126.27 140.74"/><polygon class="cls-12" points="123.74 133.87 125.65 141.95 87.19 150.55 82.24 139.35 123.74 133.87"/><polyline class="cls-9" points="75.34 132.39 73.05 130.05 122.18 121.92 122.96 127.89 123.74 133.87 102.37 138.64 81 143.42 78.19 138.01 75.39 132.6"/><polygon class="cls-12" points="65.6 122.49 119.73 110.39 122.18 121.92 78.94 131.58 75.36 132.38 65.6 122.49"/></g><g id="right"><polyline class="cls-11" points="131.97 181.96 153.6 278.19 163.74 279.37 143.2 177.26"/><path class="cls-13" d="M170.19,284c-1.12-5-8.55-7.59-16.59-5.79,1.17,5.22,3.13,13.9,4.07,18.08C165.71,294.48,171.31,289,170.19,284Z"/><polygon class="cls-13" points="150.73 265.41 165.6 262.09 162.86 266.82 151.61 269.34 150.73 265.41"/><polygon class="cls-13" points="128.1 164.32 132.04 181.86 146.78 178.56 145.92 160.61 128.1 164.32"/><polygon class="cls-10" points="127.14 160.2 128.42 165.92 149.26 161.26 152.52 155.2 127.14 160.2"/><polyline class="cls-11" points="125.81 154.37 127.5 161.86 154.43 155.84 153.94 153.66 151.83 154.16 151.01 150.85 149.19 151.25"/><polygon class="cls-13" points="123.61 144.77 126.27 156.56 149.19 151.44 149.58 139.28 123.61 144.77"/><polygon class="cls-14" points="122.88 141.5 124.25 147.59 154.56 140.82 155.36 134.23 122.88 141.5"/><polygon class="cls-14" points="120.56 131.08 123.15 142.61 159.08 134.58 158.76 122.7 120.56 131.08"/><polyline class="cls-13" points="161.97 113.03 163.51 108.67 117.78 118.81 121.29 134.41 161.58 125.41 162.01 113.23"/><polygon class="cls-14" points="166.57 99.92 116.09 111.2 118.67 122.7 161.99 113.02 166.57 99.92"/></g><g id="Layer_10" data-name="Layer 10"><path class="cls-2" d="M145.49,299.4A51,51,0,0,0,159,293.26c14-9.16,19.27-22.92,21-28.21a59.43,59.43,0,0,1-26.74,19.32c-14,4.94-26.51,2.77-31.73,1.8C101.8,282.52,89,270.91,83.85,265.69,102.82,290.48,127.35,304,145.49,299.4Z"/></g></g></svg>